# xmcd
#
# Track frame offsets:
#	150
#	6382
#	26847
#	43362
#	61725
#	85097
#	101560
#	122652
#	138015
#	156917
#	178165
#	200840
#	223242
#
# Disc length: 3284 seconds
#
# Revision: 1
# Processed by: cddbd v1.5.2PL0 Copyright (c) Steve Scherf et al.
# Submitted via: audiograbber 1.83.01
#
DISCID=bd0cd20d
DTITLE=Core Rhythm - Nat Turner Reloaded
DYEAR=2006
DGENRE=Hip Hop
TTITLE0=For Blues People...
TTITLE1=Freedom Sing
TTITLE2=New Rome
TTITLE3=Reloaded
TTITLE4=Slanguage
TTITLE5=Live from Baghdad (featuring Wells Knotty)
TTITLE6=Earth Blues
TTITLE7=Oxygen (featuring Wells Knotty and Grandmixer DXT)
TTITLE8=Atomic Weight (featuring Wells Knotty)
TTITLE9=Ebony Eyes (featuring Creature)
TTITLE10=Mutiny
TTITLE11=The Road (featuring Baba Israel and Farbeon)
TTITLE12=Rize
EXTD=
EXTT0=
EXTT1=
EXTT2=
EXTT3=
EXTT4=
EXTT5=
EXTT6=
EXTT7=
EXTT8=
EXTT9=
EXTT10=
EXTT11=
EXTT12=
PLAYORDER=
